<svg width="167" height="269" viewBox="0 0 167 269" fill="none" xmlns="http://www.w3.org/2000/svg">
<path d="M110.722 218.715C109.475 218.715 108.399 218.262 107.492 217.355C106.585 216.449 106.132 215.372 106.132 214.125V186.755H79.782C78.5353 186.755 77.4587 186.302 76.552 185.395C75.6453 184.489 75.192 183.412 75.192 182.165V163.635C75.192 162.389 75.6453 161.312 76.552 160.405C77.4587 159.499 78.5353 159.045 79.782 159.045H106.132V132.525C106.132 131.279 106.585 130.202 107.492 129.295C108.399 128.389 109.475 127.935 110.722 127.935H131.462C132.709 127.935 133.785 128.389 134.692 129.295C135.599 130.202 136.052 131.279 136.052 132.525V159.045H162.062C163.309 159.045 164.385 159.499 165.292 160.405C166.199 161.312 166.652 162.389 166.652 163.635V182.165C166.652 183.412 166.199 184.489 165.292 185.395C164.385 186.302 163.309 186.755 162.062 186.755H136.052V214.125C136.052 215.372 135.599 216.449 134.692 217.355C133.785 218.262 132.709 218.715 131.462 218.715H110.722Z" fill="#FFE477"/>
<path d="M52.14 198.74C50.5267 198.74 49.1333 198.153 47.96 196.98C46.7867 195.807 46.2 194.413 46.2 192.8V157.38H12.1C10.4867 157.38 9.09333 156.793 7.92 155.62C6.74667 154.447 6.16 153.053 6.16 151.44V127.46C6.16 125.847 6.74667 124.453 7.92 123.28C9.09333 122.107 10.4867 121.52 12.1 121.52H46.2V87.2C46.2 85.5867 46.7867 84.1933 47.96 83.02C49.1333 81.8467 50.5267 81.26 52.14 81.26H78.98C80.5933 81.26 81.9867 81.8467 83.16 83.02C84.3333 84.1933 84.92 85.5867 84.92 87.2V121.52H118.58C120.193 121.52 121.587 122.107 122.76 123.28C123.933 124.453 124.52 125.847 124.52 127.46V151.44C124.52 153.053 123.933 154.447 122.76 155.62C121.587 156.793 120.193 157.38 118.58 157.38H84.92V192.8C84.92 194.413 84.3333 195.807 83.16 196.98C81.9867 198.153 80.5933 198.74 78.98 198.74H52.14Z" fill="#F1C513"/>
</svg>
