<svg width="184" height="278" viewBox="0 0 184 278" fill="none" xmlns="http://www.w3.org/2000/svg">
<path d="M76.3 218.35C68.3667 218.35 61.9067 216.367 56.92 212.4C52.0467 208.32 49.3267 202.88 48.76 196.08C48.5333 192.68 48.42 190.243 48.42 188.77C48.42 187.183 48.5333 184.123 48.76 179.59C49.2133 172.677 51.82 167.237 56.58 163.27C61.4533 159.19 68.0267 157.15 76.3 157.15C84.5733 157.15 91.09 159.19 95.85 163.27C100.723 167.237 103.387 172.677 103.84 179.59C104.067 184.123 104.18 187.183 104.18 188.77C104.18 190.243 104.067 192.68 103.84 196.08C103.273 202.88 100.497 208.32 95.51 212.4C90.6367 216.367 84.2333 218.35 76.3 218.35ZM63.38 277C62.1333 277 61.1133 276.717 60.32 276.15C59.64 275.47 59.3 274.62 59.3 273.6C59.3 272.92 59.5267 272.297 59.98 271.73L143.96 161.23C144.867 160.097 145.717 159.303 146.51 158.85C147.417 158.283 148.607 158 150.08 158H167.76C169.007 158 169.97 158.34 170.65 159.02C171.443 159.587 171.84 160.38 171.84 161.4C171.84 162.08 171.613 162.703 171.16 163.27L87.18 273.77C86.2733 274.903 85.3667 275.753 84.46 276.32C83.6667 276.773 82.5333 277 81.06 277H63.38ZM76.3 199.99C78.9067 199.99 80.3233 198.29 80.55 194.89C80.7767 191.717 80.89 189.337 80.89 187.75C80.89 185.823 80.7767 183.5 80.55 180.78C80.3233 177.38 78.9067 175.68 76.3 175.68C73.6933 175.68 72.2767 177.38 72.05 180.78C71.9367 182.14 71.88 184.463 71.88 187.75C71.88 190.923 71.9367 193.303 72.05 194.89C72.2767 198.29 73.6933 199.99 76.3 199.99ZM155.52 277.85C147.587 277.85 141.127 275.867 136.14 271.9C131.267 267.82 128.547 262.38 127.98 255.58C127.753 252.18 127.64 249.743 127.64 248.27C127.64 246.683 127.753 243.623 127.98 239.09C128.433 232.177 131.04 226.737 135.8 222.77C140.673 218.69 147.247 216.65 155.52 216.65C163.793 216.65 170.31 218.69 175.07 222.77C179.943 226.737 182.607 232.177 183.06 239.09C183.287 243.623 183.4 246.683 183.4 248.27C183.4 249.743 183.287 252.18 183.06 255.58C182.493 262.38 179.717 267.82 174.73 271.9C169.857 275.867 163.453 277.85 155.52 277.85ZM155.52 259.49C158.127 259.49 159.543 257.79 159.77 254.39C159.997 251.217 160.11 248.837 160.11 247.25C160.11 245.323 159.997 243 159.77 240.28C159.543 236.88 158.127 235.18 155.52 235.18C152.913 235.18 151.497 236.88 151.27 240.28C151.157 241.64 151.1 243.963 151.1 247.25C151.1 250.423 151.157 252.803 151.27 254.39C151.497 257.79 152.913 259.49 155.52 259.49Z" fill="#FFE477"/>
<path d="M41.8 130.1C31.5333 130.1 23.1733 127.533 16.72 122.4C10.4133 117.12 6.89333 110.08 6.16 101.28C5.86667 96.88 5.72 93.7267 5.72 91.82C5.72 89.7667 5.86667 85.8067 6.16 79.94C6.74667 70.9933 10.12 63.9533 16.28 58.82C22.5867 53.54 31.0933 50.9 41.8 50.9C52.5067 50.9 60.94 53.54 67.1 58.82C73.4067 63.9533 76.8533 70.9933 77.44 79.94C77.7333 85.8067 77.88 89.7667 77.88 91.82C77.88 93.7267 77.7333 96.88 77.44 101.28C76.7067 110.08 73.1133 117.12 66.66 122.4C60.3533 127.533 52.0667 130.1 41.8 130.1ZM25.08 206C23.4667 206 22.1467 205.633 21.12 204.9C20.24 204.02 19.8 202.92 19.8 201.6C19.8 200.72 20.0933 199.913 20.68 199.18L129.36 56.18C130.533 54.7133 131.633 53.6867 132.66 53.1C133.833 52.3667 135.373 52 137.28 52H160.16C161.773 52 163.02 52.44 163.9 53.32C164.927 54.0533 165.44 55.08 165.44 56.4C165.44 57.28 165.147 58.0867 164.56 58.82L55.88 201.82C54.7067 203.287 53.5333 204.387 52.36 205.12C51.3333 205.707 49.8667 206 47.96 206H25.08ZM41.8 106.34C45.1733 106.34 47.0067 104.14 47.3 99.74C47.5933 95.6333 47.74 92.5533 47.74 90.5C47.74 88.0067 47.5933 85 47.3 81.48C47.0067 77.08 45.1733 74.88 41.8 74.88C38.4267 74.88 36.5933 77.08 36.3 81.48C36.1533 83.24 36.08 86.2467 36.08 90.5C36.08 94.6067 36.1533 97.6867 36.3 99.74C36.5933 104.14 38.4267 106.34 41.8 106.34ZM144.32 207.1C134.053 207.1 125.693 204.533 119.24 199.4C112.933 194.12 109.413 187.08 108.68 178.28C108.387 173.88 108.24 170.727 108.24 168.82C108.24 166.767 108.387 162.807 108.68 156.94C109.267 147.993 112.64 140.953 118.8 135.82C125.107 130.54 133.613 127.9 144.32 127.9C155.027 127.9 163.46 130.54 169.62 135.82C175.927 140.953 179.373 147.993 179.96 156.94C180.253 162.807 180.4 166.767 180.4 168.82C180.4 170.727 180.253 173.88 179.96 178.28C179.227 187.08 175.633 194.12 169.18 199.4C162.873 204.533 154.587 207.1 144.32 207.1ZM144.32 183.34C147.693 183.34 149.527 181.14 149.82 176.74C150.113 172.633 150.26 169.553 150.26 167.5C150.26 165.007 150.113 162 149.82 158.48C149.527 154.08 147.693 151.88 144.32 151.88C140.947 151.88 139.113 154.08 138.82 158.48C138.673 160.24 138.6 163.247 138.6 167.5C138.6 171.607 138.673 174.687 138.82 176.74C139.113 181.14 140.947 183.34 144.32 183.34Z" fill="#F1C513"/>
</svg>
